<svg xmlns="http://www.w3.org/2000/svg" width="57.69499" height="66.81337" viewBox="0 0 57.69499 66.81337">
  <title>filter</title>
  <g>
    <circle cx="19.76917" cy="6.88671" r="3.91628"/>
    <circle cx="39.14768" cy="3.91812" r="3.9154"/>
    <path d="M32.30929,16.23628a3.91453,3.91453,0,1,1-3.91646-3.92036A3.9156,3.9156,0,0,1,32.30929,16.23628Z"/>
    <g>
      <path d="M22.98738,66.81337a2.82155,2.82155,0,0,1-2.82082-2.82082V33.50475L.74984,12.56937A2.82138,2.82138,0,0,1,4.89292,8.7385L25.8082,31.29364V63.99255A2.82155,2.82155,0,0,1,22.98738,66.81337Z"/>
      <path d="M34.447,58.59629a2.82155,2.82155,0,0,1-2.82082-2.82082V31.312L52.78022,8.113a2.82154,2.82154,0,0,1,4.18715,3.78313L37.26777,33.48639V55.77547A2.82155,2.82155,0,0,1,34.447,58.59629Z"/>
    </g>
  </g>
</svg>
