<svg xmlns="http://www.w3.org/2000/svg" width="46.89048" height="47.52854" viewBox="0 0 46.89048 47.52854">
  <title>list</title>
  <g>
    <path d="M44.19413,5.37775H2.69635A2.68889,2.68889,0,1,1,2.69635,0H44.19413a2.68889,2.68889,0,1,1,0,5.37775Z"/>
    <path d="M44.19413,31.96392H2.69635a2.68889,2.68889,0,1,1,0-5.37775H44.19413a2.68889,2.68889,0,1,1,0,5.37775Z"/>
    <path d="M26.51052,18.633H2.65105A2.59015,2.59015,0,0,1,0,16.01978a2.692,2.692,0,0,1,2.69635-2.68888H25.93312c1.48961,0,3.22845,1.16558,3.22845,2.65105A2.62165,2.62165,0,0,1,26.51052,18.633Z"/>
    <path d="M25.93312,47.52854H2.69635a2.68889,2.68889,0,1,1,0-5.37775H25.93312a2.68889,2.68889,0,1,1,0,5.37775Z"/>
  </g>
</svg>
