<svg xmlns="http://www.w3.org/2000/svg" width="81" height="81" viewBox="0 0 81 81">
  <title>setting.icon</title>
  <g>
    <path d="M39.30255,8a11.98423,11.98423,0,0,0-22.6051,0H0v8H16.69745a11.98423,11.98423,0,0,0,22.6051,0H81V8ZM24,12a4,4,0,1,1,4,4A4.0045,4.0045,0,0,1,24,12Z"/>
    <path d="M64.30255,36a11.98423,11.98423,0,0,0-22.6051,0H0v8H41.69745a11.98423,11.98423,0,0,0,22.6051,0H81V36ZM49,40a4,4,0,1,1,4,4A4.0045,4.0045,0,0,1,49,40Z"/>
    <path d="M35.30255,65a11.98423,11.98423,0,0,0-22.6051,0H0v8H12.69745a11.98423,11.98423,0,0,0,22.6051,0H81V65ZM20,69a4,4,0,1,1,4,4A4.0045,4.0045,0,0,1,20,69Z"/>
  </g>
</svg>
