<svg xmlns="http://www.w3.org/2000/svg" width="96.14319" height="96.14197" viewBox="0 0 96.14319 96.14197">
  <title>x-close-rev</title>
  <path d="M82.07922,14.06287a48.0713,48.0713,0,1,0,0,68.01563A48.15148,48.15148,0,0,0,82.07922,14.06287ZM65.06232,60.84845A2.97437,2.97437,0,1,1,60.827,65.0257L48.154,52.18756,35.30133,65.04022a2.97432,2.97432,0,1,1-4.20636-4.2063L43.97473,47.95416,31.27362,35.08746A2.97542,2.97542,0,0,1,35.509,30.90729L48.18213,43.7467,60.84149,31.0874a2.97432,2.97432,0,0,1,4.2063,4.20636L52.36108,47.98047Z"/>
</svg>
